PathFileType	4	(X/Y/Z)	Patient4_TMGait_0pt2_02_right_09.trc.trc
DataRate	CameraRate	NumFrames	NumMarkers	Units	OrigDataRate	OrigDataStartFrame	OrigNumFrames
41.420118343195	41.420118343195	5	33	mm	41.420118343195	18	       141
Frame#	Time	R.Midfoot.Superior			Sacral			L.Shoulder			Chest			R.Shoulder			Neck			R.ASIS			L.ASIS			R.Thigh.Superior			R.Thigh.Lateral			R.Thigh.Inferior			R.Patella			L.Thigh.Superior			L.Thigh.Lateral			L.Thigh.Inferior			L.Patella			L.Shank.Superior			L.Shank.Lateral			L.Shank.Inferior			R.Shank.Superior			R.Shank.Lateral			R.Shank.Inferior			R.Heel			R.Midfoot.Lateral			R.Toe			L.Heel			L.Midfoot.Lateral			L.Midfoot.Superior			L.Toe			L.Elbow			L.Wrist			R.Elbow			R.Wrist			
		X1	Y1	Z1	X2	Y2	Z2	X3	Y3	Z3	X4	Y4	Z4	X5	Y5	Z5	X6	Y6	Z6	X7	Y7	Z7	X8	Y8	Z8	X9	Y9	Z9	X10	Y10	Z10	X11	Y11	Z11	X12	Y12	Z12	X13	Y13	Z13	X14	Y14	Z14	X15	Y15	Z15	X16	Y16	Z16	X17	Y17	Z17	X18	Y18	Z18	X19	Y19	Z19	X20	Y20	Z20	X21	Y21	Z21	X22	Y22	Z22	X23	Y23	Z23	X24	Y24	Z24	X25	Y25	Z25	X26	Y26	Z26	X27	Y27	Z27	X28	Y28	Z28	X29	Y29	Z29	X30	Y30	Z30	X31	Y31	Z31	X32	Y32	Z32	X33	Y33	Z33	

18	19.560428571429	1157.247873823432	118.221687772817	609.029443437834	801.397555923830	1008.908551538300	380.896630383539	1055.189650951784	1428.821068136147	244.880822530139	1100.809379486846	1358.376129743175	427.687031749489	977.685681541015	1441.634243859729	569.362403653609	994.183565069916	1493.018965684290	391.780974131629	1000.825268563776	944.743795403790	548.041335124219	1044.216342219570	956.662312920858	276.002665547544	1077.670527195616	769.723814452597	527.143463124606	1025.447104266755	652.927145149575	599.744086274049	1115.132526857986	609.056903325056	526.230735507038	1144.239901199104	522.308003937856	549.755731525275	1078.036823003775	743.415239848015	318.060114337463	998.639952534747	622.058838624551	252.455157869709	1070.384248216285	549.676669712055	334.096771311933	1068.236945502996	479.296912290064	344.992911646046	1032.444999220876	406.800675511756	334.433523318208	937.116423432571	298.504058980751	281.082394522660	970.552237125873	186.891656261422	359.756968545478	1117.846497583648	433.266938758084	563.807520341892	1048.796975280014	333.140893424742	635.209277802236	1105.159434377656	234.507843540104	590.392474266129	986.693248869594	56.211346848822	578.374521126636	1075.920284640353	47.405584489528	645.634976953372	1280.953826489722	74.810589143296	626.880732959477	829.748894773205	38.078915713943	401.141326034053	902.932067741806	35.751973743895	319.242418638386	987.398309005296	95.701044779938	346.936073088741	1114.982812063638	43.179907856438	315.536125108353	1231.371220768465	1156.394122167944	102.798587405150	1484.246586465391	1096.140048460798	131.272777487758	788.523167981419	1143.283120913392	641.355333575956	749.382122390184	883.595132266134	634.300573078035	
19	19.584571428571	1168.099689484543	116.724616139091	608.953804440225	800.688493191886	1009.342165289833	381.645440650019	1056.526134984381	1428.365226579128	248.476481934656	1099.396736374392	1358.509696728714	431.976260347929	974.895736010658	1442.842476760649	571.764333649320	993.526107972715	1493.156998333912	394.284302909525	997.586628079986	944.095503211027	551.291661793294	1044.584384214411	957.222574600706	279.742827312589	1072.849209833802	767.836303847908	531.571627387739	1017.442243761156	650.859959020808	602.147517690435	1108.102901199535	607.082274356855	530.241755280799	1136.383286379206	522.127369909365	552.434692678483	1075.652840916158	742.954046563858	320.587321350237	995.165079946114	622.851908488808	253.330457705020	1065.327518901054	549.251433745918	334.939771923215	1062.133955586653	479.210240998037	345.502429169054	1026.731967950676	407.014776484274	334.610316101352	931.621345105056	298.578549550174	281.049531779352	965.365616890118	187.040146747770	359.854017676747	1114.031476746664	432.662968613731	565.880089884721	1049.071100355053	328.659734041083	636.407275914050	1110.514458300673	232.562892857895	591.382163765219	999.731009150927	49.645359972902	577.983942263367	1089.224781985255	42.852990493130	645.003463314877	1293.670373822007	77.311667742258	626.510974301349	824.844270432824	37.999211900498	401.113414157221	898.006129990043	35.685192597268	319.206847636130	982.416279775679	95.720219562743	346.923805364417	1110.032742994089	43.396986844679	315.589405393726	1237.676742294667	1160.928592115329	106.842642516916	1493.112131734151	1113.518837828625	137.458580841784	782.547866572836	1146.510371374076	639.534725272070	743.315795778859	886.644375522469	628.836549769492	
20	19.608714285714	1175.094556342814	115.349217591413	608.458533827503	800.420703095468	1009.229063033918	382.849808253187	1057.517305054802	1427.729411492158	252.522688285760	1098.058997600617	1358.367188114903	436.569421048184	972.341995203311	1443.465737918194	574.755394595259	992.782014365015	1492.937102631343	397.375007082341	995.127614456185	942.966961345482	554.518845961738	1045.255257827237	957.638254685820	283.522762212804	1069.265853433239	765.677798425707	535.663663324524	1010.800880425387	648.399532306827	604.094307847052	1102.505312392421	604.877989265167	533.770696341356	1129.686250216925	521.227958983127	554.628475566036	1073.914168794708	742.354679767478	323.114367955440	992.377730933741	623.441973246319	254.336092677328	1061.007569716191	548.682433158091	335.874918266731	1056.821403364720	478.901061950176	346.105209337282	1021.657846761111	407.006569383255	334.911736969373	926.576716583729	298.615596050635	281.092995420707	960.393359594726	187.068980016301	359.974555961417	1110.448177091546	431.423787315103	567.537191542659	1048.472302098487	324.678061373290	637.058421549605	1113.620634500540	230.741113437709	591.887509888526	1008.581039785223	45.321683268749	577.104316225687	1097.960368265195	39.803823273386	644.115587590398	1301.639480691680	78.564651375982	626.088778436388	819.944109634030	37.942056993458	401.072279547524	893.085906096371	35.619553948190	319.171931981720	977.449168812195	95.730613484121	346.916706709053	1105.091389424306	43.585361283706	315.631654387040	1243.060248603012	1164.839502782257	111.265756211950	1500.235563333885	1129.226612119119	143.905059535942	778.216859560615	1148.256859012665	638.792087628321	739.717183827772	888.082200367372	624.935592743398	
21	19.632857142857	1178.608074156120	113.942230244772	607.625920953241	800.613765519530	1008.681121750227	384.501328003969	1058.238626530431	1427.013933566545	257.013197421977	1096.867088588470	1358.031229255198	441.479202285784	970.059166620054	1443.581413723609	578.336908977223	992.007178964762	1492.449507113482	401.061547588351	993.485763682670	941.482375704332	557.740063007136	1046.261878797703	957.957794159445	287.340262062394	1066.970483610525	763.378883767823	539.371730599439	1005.694212475717	645.714002201820	605.626175060983	1098.436577737238	602.582379178707	536.766953819472	1124.323562890153	519.765796430330	556.343240312689	1072.803249528627	741.635212501821	325.665607458006	990.219117973787	623.861743574609	255.506739822531	1057.352028706968	547.989604890711	336.938751077275	1052.222224855746	478.398129883409	346.838383257469	1017.149495792504	406.813946202274	335.364295220293	921.928698412422	298.641881777544	281.232401553720	955.606964298756	186.998405408806	360.124787572469	1107.288290113780	429.652370105452	568.806946886881	1047.202084489185	321.161357501365	637.260510921435	1114.748587641562	228.901920526523	591.957866684679	1013.445795279203	42.748637908754	575.870490993643	1102.453318798829	37.920083957721	643.092507077330	1305.415015245579	78.503298510313	625.656183927817	815.046832714544	37.905085509270	401.019666002497	888.169902595405	35.553849340306	319.138149876277	972.497976034946	95.733738035008	346.912594277731	1100.159659650502	43.743441069529	315.662318397115	1247.573498051618	1168.173440730380	116.007993612453	1505.803153593609	1143.201111077654	150.503696114613	775.318458579036	1148.715282693581	639.225469447118	738.147019629659	888.155759211469	622.847274651683	
22	19.657000000000	1179.222573466359	112.413047867344	606.549698642693	801.272011159275	1007.823782979380	386.594830270562	1058.778364012239	1426.309943264302	261.924096169243	1095.892718579340	1357.582178546656	446.700440854716	968.094659344533	1443.284978835869	582.486710977032	991.269322702729	1491.789395748210	405.327619067335	992.669138478620	939.780507282373	560.989616008358	1047.620615074770	958.215166591738	291.201887613175	1065.934977305819	761.061564491980	542.697135829669	1002.207567325321	642.969072180023	606.845270630039	1095.906952996262	600.316488318849	539.242258322445	1120.389513386449	517.909033244277	557.637721313425	1072.269598482060	740.812402095691	328.275224427999	988.600895736320	624.145925555281	256.877950828165	1054.264592022131	547.195373634488	338.164578715104	1048.234047996038	477.736624934113	347.734411524382	1013.117234072399	406.479462282779	335.991529000750	917.609297700208	298.684861924527	281.490203552927	950.973847577217	186.851937056854	360.313138658667	1104.719717384360	427.488273394452	569.750656288320	1045.535963298650	318.074493747252	637.156731998506	1114.300652635044	226.963790986260	591.674336850990	1014.814803362334	41.446519119689	574.443505191347	1103.313842363251	36.878200332291	642.048514087083	1305.761996940975	77.198661251542	625.216152152199	810.151899713681	37.885511742990	400.959343481165	883.257201431892	35.488647814095	319.107081561263	967.563851985934	95.731235090772	346.910776707374	1095.237628596800	43.869813546534	315.681779213307	1251.295377809830	1170.983594437210	121.006494344121	1510.034257808174	1155.437258585417	157.155175409031	773.637565203934	1148.138407818741	640.871489376845	738.163188343744	887.167840215518	622.708884975307	
